<svg width="609" height="199" viewBox="0 0 609 199" fill="none" xmlns="http://www.w3.org/2000/svg">
<path d="M8.25 150V38.55H55.8C60.7 38.55 65.2 39.15 69.3 40.35C73.4 41.55 76.95 43.6 79.95 46.5C82.95 49.3 85.25 53.1 86.85 57.9C88.55 62.7 89.4 68.75 89.4 76.05C89.4 80.65 89 84.65 88.2 88.05C87.4 91.45 86.3 94.35 84.9 96.75C83.6 99.05 82 101 80.1 102.6C78.3 104.2 76.35 105.6 74.25 106.8L93.6 150H64.05L48.45 111.6C47.55 111.6 46.6 111.6 45.6 111.6C44.7 111.6 43.8 111.6 42.9 111.6C42 111.6 41.05 111.6 40.05 111.6C39.15 111.6 38.25 111.6 37.35 111.6V150H8.25ZM37.35 88.5H50.55C52.15 88.5 53.55 88.3 54.75 87.9C55.95 87.4 56.95 86.65 57.75 85.65C58.65 84.65 59.3 83.4 59.7 81.9C60.1 80.3 60.3 78.4 60.3 76.2C60.3 74 60.1 72.15 59.7 70.65C59.3 69.15 58.65 68 57.75 67.2C56.95 66.3 55.95 65.65 54.75 65.25C53.55 64.85 52.15 64.65 50.55 64.65H37.35V88.5ZM104.197 150V38.55H133.297V150H104.197ZM171.954 150V64.65H143.904V38.55H229.104V64.65H201.054V150H171.954ZM267.63 150.9C265.23 150.9 262.33 150.65 258.93 150.15C255.63 149.65 252.38 148.55 249.18 146.85C246.08 145.15 243.48 142.55 241.38 139.05C239.28 135.45 238.23 130.55 238.23 124.35V66.15C238.23 60.75 239.08 56.25 240.78 52.65C242.48 49.05 244.68 46.25 247.38 44.25C250.08 42.15 253.08 40.7 256.38 39.9C259.68 39 262.88 38.55 265.98 38.55C274.38 38.55 281.58 38.7 287.58 39C293.68 39.2 298.93 39.45 303.33 39.75C307.83 40.05 311.78 40.4 315.18 40.8V65.4H274.98C272.48 65.4 270.58 65.95 269.28 67.05C267.98 68.15 267.33 69.8 267.33 72V81.3L307.68 82.8V105.9L267.33 107.4V115.8C267.33 117.6 267.58 119.1 268.08 120.3C268.68 121.4 269.48 122.25 270.48 122.85C271.48 123.35 272.58 123.6 273.78 123.6H315.18V148.2C310.88 148.8 305.98 149.3 300.48 149.7C294.98 150.1 289.38 150.4 283.68 150.6C277.98 150.8 272.63 150.9 267.63 150.9ZM357.708 150C351.008 150 345.508 149 341.208 147C336.908 145 333.758 141.85 331.758 137.55C329.758 133.25 328.758 127.75 328.758 121.05V38.55H357.858V116.1C357.858 117.8 358.108 119.25 358.608 120.45C359.208 121.65 360.108 122.55 361.308 123.15C362.508 123.65 363.958 123.9 365.658 123.9H398.058V150H357.708Z" fill="#41B04A"/>
<path d="M439.924 150.75C433.024 150.75 427.374 149.3 422.974 146.4C418.674 143.4 415.324 139.35 412.924 134.25C410.524 129.05 408.824 123.05 407.824 116.25C406.924 109.45 406.474 102.2 406.474 94.5C406.474 85.9 407.024 78.1 408.124 71.1C409.324 64.1 411.424 58.1 414.424 53.1C417.524 48.1 421.924 44.25 427.624 41.55C433.324 38.85 440.724 37.5 449.824 37.5C455.724 37.5 460.774 37.75 464.974 38.25C469.274 38.65 473.274 39.3 476.974 40.2C480.674 41 484.524 41.95 488.524 43.05V65.7C486.324 65.3 483.524 64.95 480.124 64.65C476.724 64.35 472.924 64.1 468.724 63.9C464.524 63.7 460.074 63.6 455.374 63.6C449.574 63.6 445.274 64.5 442.474 66.3C439.674 68 437.824 71.1 436.924 75.6C436.024 80.1 435.574 86.4 435.574 94.5C435.574 100.7 435.824 105.75 436.324 109.65C436.824 113.45 437.624 116.4 438.724 118.5C439.924 120.6 441.424 122.05 443.224 122.85C445.024 123.65 447.174 124.05 449.674 124.05C453.374 124.05 456.674 123.9 459.574 123.6C462.474 123.2 464.674 122.85 466.174 122.55V108.15H450.724V85.05C452.924 84.75 455.524 84.5 458.524 84.3C461.624 84.1 464.774 83.95 467.974 83.85C471.274 83.65 474.274 83.55 476.974 83.55C480.574 83.55 483.724 83.6 486.424 83.7C489.224 83.7 491.774 83.75 494.074 83.85V150H472.174L468.274 142.65C465.874 144.25 462.124 146 457.024 147.9C451.924 149.8 446.224 150.75 439.924 150.75ZM555.395 150.9C547.495 150.9 540.545 150.15 534.545 148.65C528.645 147.05 523.695 144.25 519.695 140.25C515.695 136.25 512.695 130.55 510.695 123.15C508.695 115.65 507.695 106 507.695 94.2C507.695 82.4 508.695 72.8 510.695 65.4C512.695 57.9 515.695 52.15 519.695 48.15C523.695 44.15 528.645 41.4 534.545 39.9C540.545 38.3 547.495 37.5 555.395 37.5C563.295 37.5 570.195 38.3 576.095 39.9C582.095 41.4 587.095 44.15 591.095 48.15C595.095 52.15 598.095 57.9 600.095 65.4C602.095 72.8 603.095 82.4 603.095 94.2C603.095 106 602.095 115.65 600.095 123.15C598.095 130.55 595.095 136.25 591.095 140.25C587.095 144.25 582.095 147.05 576.095 148.65C570.195 150.15 563.295 150.9 555.395 150.9ZM555.395 124.8C559.195 124.8 562.295 124.35 564.695 123.45C567.095 122.55 568.945 121 570.245 118.8C571.645 116.6 572.595 113.5 573.095 109.5C573.695 105.5 573.995 100.4 573.995 94.2C573.995 87.7 573.695 82.45 573.095 78.45C572.595 74.45 571.645 71.4 570.245 69.3C568.945 67.1 567.095 65.6 564.695 64.8C562.295 64 559.195 63.6 555.395 63.6C551.695 63.6 548.595 64 546.095 64.8C543.695 65.6 541.795 67.1 540.395 69.3C539.095 71.4 538.145 74.45 537.545 78.45C537.045 82.45 536.795 87.7 536.795 94.2C536.795 100.4 537.045 105.5 537.545 109.5C538.145 113.5 539.095 116.6 540.395 118.8C541.795 121 543.695 122.55 546.095 123.45C548.595 124.35 551.695 124.8 555.395 124.8Z" fill="#717171"/>
</svg>
